<?xml version="1.0" standalone="no"?>
<!DOCTYPE svg PUBLIC "-//W3C//DTD SVG 20010904//EN"
 "http://www.w3.org/TR/2001/REC-SVG-20010904/DTD/svg10.dtd">
<svg version="1.0" xmlns="http://www.w3.org/2000/svg"
 width="1024.000000pt" height="1024.000000pt" viewBox="0 0 1024.000000 1024.000000"
 preserveAspectRatio="xMidYMid meet">
<metadata>
Created by potrace 1.11, written by Peter Selinger 2001-2013
</metadata>
<g transform="translate(0.000000,1024.000000) scale(0.100000,-0.100000)"
fill="#000000" stroke="none">
<path d="M1424 8419 c-64 -24 -136 -86 -171 -146 -38 -65 -53 -142 -53 -275
l0 -118 1126 0 1125 0 -3 153 c-3 140 -5 156 -29 208 -33 69 -91 129 -161 166
l-53 28 -865 2 c-842 2 -866 2 -916 -18z"/>
<path d="M5830 8434 c-25 -2 -108 -8 -185 -14 -285 -23 -575 -71 -783 -130
-209 -61 -268 -95 -399 -233 -125 -133 -130 -146 -213 -560 -39 -198 -70 -361
-67 -363 2 -2 62 32 132 76 374 234 794 398 1230 479 395 74 857 74 1269 0
423 -76 858 -245 1229 -478 70 -44 127 -74 127 -67 0 45 -143 712 -159 744
-58 113 -225 283 -326 332 -170 83 -549 162 -955 200 -112 11 -810 22 -900 14z"/>
<path d="M8615 8091 c-72 -33 -76 -44 -50 -131 l22 -75 469 -5 c491 -6 507 -7
619 -54 l35 -15 0 70 c0 109 -35 173 -115 210 -37 17 -74 19 -490 19 -415 0
-453 -2 -490 -19z"/>
<path d="M1498 7765 c-244 -62 -413 -291 -394 -536 12 -164 98 -308 241 -403
l40 -26 -693 0 -692 0 3 -2367 2 -2368 23 -85 c81 -303 312 -536 617 -622 l80
-23 1460 -3 c803 -1 1577 -1 1720 0 l260 3 -55 40 c-141 102 -268 212 -421
364 -306 306 -509 591 -689 964 -468 973 -462 2100 16 3066 171 347 366 624
643 914 l113 117 -964 0 -963 0 45 29 c267 168 320 544 108 776 -65 71 -120
109 -205 141 -85 32 -212 40 -295 19z m694 -1348 c74 -36 144 -107 177 -177
l26 -55 0 -1640 0 -1640 -27 -57 c-34 -73 -103 -142 -176 -176 l-57 -27 -825
0 -825 0 -48 22 c-70 33 -149 113 -183 186 l-29 62 0 1630 0 1630 27 57 c32
69 98 142 153 170 92 48 73 47 925 45 l805 -2 57 -28z"/>
<path d="M5915 7349 c-531 -43 -1062 -233 -1505 -537 -297 -204 -580 -482
-787 -772 -564 -791 -729 -1797 -446 -2730 157 -520 490 -1045 890 -1403 484
-433 1028 -689 1673 -788 123 -19 188 -23 425 -23 285 -1 355 4 580 45 821
148 1569 643 2040 1349 251 377 425 823 490 1256 57 381 42 805 -41 1166 -194
848 -728 1572 -1488 2017 -545 319 -1206 471 -1831 420z m1612 -1306 c118 -43
187 -87 284 -183 100 -99 154 -186 201 -320 30 -89 32 -103 33 -235 0 -166
-14 -228 -80 -360 -177 -353 -581 -517 -957 -389 -203 69 -391 247 -471 447
-80 200 -73 439 18 632 82 172 230 313 408 388 113 47 175 57 337 53 131 -3
153 -6 227 -33z m-1702 -1837 c122 -32 249 -132 307 -242 105 -197 66 -437
-98 -594 -188 -181 -480 -184 -671 -6 -330 307 -121 855 327 856 47 0 108 -6
135 -14z m-940 -1061 c89 -15 190 -105 221 -197 22 -68 15 -177 -15 -236 -29
-57 -87 -113 -147 -143 -71 -35 -188 -34 -259 3 -63 33 -118 88 -147 147 -33
66 -33 197 0 259 33 62 87 118 137 142 45 22 127 40 155 35 8 -2 33 -6 55 -10z"/>
<path d="M8689 6693 c933 -963 1246 -2325 826 -3590 -221 -663 -663 -1274
-1225 -1693 -47 -35 -89 -67 -95 -72 -6 -5 264 -8 655 -6 652 4 667 4 745 26
304 85 536 319 617 622 l23 85 2 2368 3 2367 -828 0 -828 0 105 -107z"/>
</g>
</svg>
