<?xml version="1.0" encoding="UTF-8" standalone="no"?>
<svg
   xmlns:dc="http://purl.org/dc/elements/1.1/"
   xmlns:cc="http://creativecommons.org/ns#"
   xmlns:rdf="http://www.w3.org/1999/02/22-rdf-syntax-ns#"
   xmlns:svg="http://www.w3.org/2000/svg"
   xmlns="http://www.w3.org/2000/svg"
   xmlns:sodipodi="http://sodipodi.sourceforge.net/DTD/sodipodi-0.dtd"
   xmlns:inkscape="http://www.inkscape.org/namespaces/inkscape"
   width="24"
   height="24"
   viewBox="0 0 24 24"
   fill="none"
   stroke="currentColor"
   stroke-width="2"
   stroke-linecap="round"
   stroke-linejoin="round"
   class="feather feather-instagram"
   version="1.1"
   id="svg3733"
   sodipodi:docname="instagram.svg"
   inkscape:version="0.92.3 (2405546, 2018-03-11)">
  <metadata
     id="metadata3739">
    <rdf:RDF>
      <cc:Work
         rdf:about="">
        <dc:format>image/svg+xml</dc:format>
        <dc:type
           rdf:resource="http://purl.org/dc/dcmitype/StillImage" />
      </cc:Work>
    </rdf:RDF>
  </metadata>
  <defs
     id="defs3737" />
  <sodipodi:namedview
     pagecolor="#ffffff"
     bordercolor="#666666"
     borderopacity="1"
     objecttolerance="10"
     gridtolerance="10"
     guidetolerance="10"
     inkscape:pageopacity="0"
     inkscape:pageshadow="2"
     inkscape:window-width="1920"
     inkscape:window-height="986"
     id="namedview3735"
     showgrid="false"
     inkscape:zoom="31.791667"
     inkscape:cx="12"
     inkscape:cy="12"
     inkscape:window-x="-11"
     inkscape:window-y="-11"
     inkscape:window-maximized="1"
     inkscape:current-layer="svg3733" />
  <rect
     x="2"
     y="2"
     width="20"
     height="20"
     rx="5"
     ry="5"
     id="rect3727" />
  <path
     d="M16 11.37A4 4 0 1 1 12.63 8 4 4 0 0 1 16 11.37z"
     id="path3729" />
  <line
     x1="17.5"
     y1="6.5"
     x2="17.5"
     y2="6.5"
     id="line3731" />
  <path
     style="fill:#ffffff;stroke-width:0.06290957"
     d="M 6.4968777,22.961919 C 5.3220315,22.871442 4.0938319,22.367394 3.1696492,21.596438 1.9972669,20.618434 1.2417673,19.226936 1.0607354,17.712189 c -0.025779,-0.215704 -0.032789,-1.860547 -0.0252,-5.9135 L 1.046049,6.1840105 1.1305227,5.8055264 C 1.3334009,4.8965313 1.7228505,4.0440836 2.2509484,3.3530799 2.4485632,3.0945057 2.9481231,2.5812282 3.2146789,2.362886 4.1177813,1.6231333 5.2682026,1.1542396 6.4545216,1.0423771 6.924898,0.99802346 17.098912,0.99760848 17.546864,1.0419246 c 1.431869,0.1416556 2.676202,0.7261619 3.67748,1.7274404 0.986302,0.9863017 1.588814,2.2474984 1.72679,3.6145705 0.04558,0.451625 0.04522,10.8085295 -3.97e-4,11.2272645 -0.258221,2.370553 -1.836182,4.332908 -4.075426,5.06821 -0.470774,0.154589 -0.950497,0.248736 -1.458799,0.286295 -0.483519,0.03573 -10.451428,0.03227 -10.9196359,-0.0038 z m 11.1043283,-1.99608 c 0.580446,-0.08525 1.164229,-0.313063 1.67114,-0.652133 0.300945,-0.2013 0.85736,-0.758085 1.048067,-1.048762 0.323838,-0.493598 0.546891,-1.051809 0.633372,-1.585074 0.07164,-0.441743 0.07305,-10.9030145 0.0015,-11.3439839 C 20.761154,5.1387413 20.038731,4.1091409 18.956754,3.487524 18.725172,3.3544761 18.291806,3.1859353 17.944847,3.0939825 L 17.62097,3.0081469 12.147837,2.9986138 C 6.0755814,2.9880372 6.3726175,2.9789566 5.7272965,3.1948945 5.1108739,3.4011624 4.6342619,3.6956002 4.172869,4.1551769 3.5991781,4.7266097 3.2409629,5.3898181 3.0511402,6.2319727 c -0.048328,0.2144072 -0.053929,0.7062405 -0.063557,5.5803343 -0.01149,5.816696 -0.01426,5.709375 0.1632311,6.324521 0.1047204,0.36294 0.4067968,0.975743 0.6202154,1.258192 0.6591213,0.872313 1.6410726,1.447907 2.7061649,1.586283 0.108631,0.01411 2.5807531,0.02746 5.4936044,0.02965 4.649977,0.0035 5.33688,-0.002 5.630407,-0.04511 z"
     id="path3741"
     inkscape:connector-curvature="0" />
  <path
     style="fill:#ffffff;stroke-width:0.06290957"
     d="M 11.676016,16.920662 C 10.559549,16.853274 9.4442031,16.357981 8.618927,15.563098 7.597491,14.579279 7.0682608,13.348192 7.0682608,11.955963 c 0,-1.393782 0.5350475,-2.6360705 1.5545856,-3.6094816 0.6657602,-0.6356393 1.4481566,-1.0502666 2.3926186,-1.2679576 0.363155,-0.083704 1.29937,-0.1185957 1.687414,-0.062887 1.879415,0.2698127 3.427468,1.5345182 4.047246,3.3064602 0.512349,1.464803 0.297227,3.116659 -0.574938,4.414781 -0.86099,1.281489 -2.285264,2.098936 -3.807166,2.185083 -0.190301,0.01077 -0.501704,0.01019 -0.692005,-0.0013 z m 1.125079,-2.052182 c 1.50584,-0.38351 2.477183,-1.889338 2.20937,-3.425086 C 14.898866,10.803435 14.624573,10.286951 14.146746,9.817038 13.824751,9.5003756 13.565458,9.3273959 13.170118,9.1655066 12.055089,8.7089096 10.776237,8.9698501 9.9111051,9.8304852 9.3422649,10.396368 9.0404486,11.133173 9.0404486,11.955963 c 0,1.160516 0.6246089,2.175034 1.6607214,2.697418 0.227261,0.114579 0.652775,0.249818 0.911936,0.289835 0.305907,0.04724 0.841328,0.01355 1.187989,-0.07474 z"
     id="path3743"
     inkscape:connector-curvature="0" />
  <path
     style="fill:#ffffff;stroke-width:0.06290957"
     d="M 17.205762,7.4328093 C 16.769581,7.2767689 16.525856,6.9428782 16.5238,6.4985583 16.5202,5.7100234 17.409509,5.2479918 18.064093,5.6983577 c 0.484169,0.3331172 0.55732,1.0264823 0.155248,1.4715282 -0.243002,0.2689737 -0.679882,0.382301 -1.013579,0.2629234 z"
     id="path3745"
     inkscape:connector-curvature="0" />
</svg>
