<?xml version="1.0" encoding="UTF-8" standalone="no"?>
<svg
   xmlns:dc="http://purl.org/dc/elements/1.1/"
   xmlns:cc="http://creativecommons.org/ns#"
   xmlns:rdf="http://www.w3.org/1999/02/22-rdf-syntax-ns#"
   xmlns:svg="http://www.w3.org/2000/svg"
   xmlns="http://www.w3.org/2000/svg"
   xmlns:sodipodi="http://sodipodi.sourceforge.net/DTD/sodipodi-0.dtd"
   xmlns:inkscape="http://www.inkscape.org/namespaces/inkscape"
   width="24"
   height="24"
   viewBox="0 0 24 24"
   fill="none"
   stroke="currentColor"
   stroke-width="2"
   stroke-linecap="round"
   stroke-linejoin="round"
   class="feather feather-linkedin"
   version="1.1"
   id="svg3767"
   sodipodi:docname="linkedin.svg"
   inkscape:version="0.92.3 (2405546, 2018-03-11)">
  <metadata
     id="metadata3773">
    <rdf:RDF>
      <cc:Work
         rdf:about="">
        <dc:format>image/svg+xml</dc:format>
        <dc:type
           rdf:resource="http://purl.org/dc/dcmitype/StillImage" />
      </cc:Work>
    </rdf:RDF>
  </metadata>
  <defs
     id="defs3771" />
  <sodipodi:namedview
     pagecolor="#ffffff"
     bordercolor="#666666"
     borderopacity="1"
     objecttolerance="10"
     gridtolerance="10"
     guidetolerance="10"
     inkscape:pageopacity="0"
     inkscape:pageshadow="2"
     inkscape:window-width="1920"
     inkscape:window-height="986"
     id="namedview3769"
     showgrid="false"
     inkscape:zoom="9.8333333"
     inkscape:cx="12"
     inkscape:cy="12"
     inkscape:window-x="-11"
     inkscape:window-y="-11"
     inkscape:window-maximized="1"
     inkscape:current-layer="svg3767" />
  <path
     d="M16 8a6 6 0 0 1 6 6v7h-4v-7a2 2 0 0 0-2-2 2 2 0 0 0-2 2v7h-4v-7a6 6 0 0 1 6-6z"
     id="path3761" />
  <rect
     x="2"
     y="9"
     width="4"
     height="12"
     id="rect3763" />
  <circle
     cx="4"
     cy="4"
     r="2"
     id="circle3765" />
  <path
     style="fill:#ffffff;stroke-width:0.20338982"
     d="M 1.3345502,21.628161 1.0372881,21.3309 V 15.025795 8.7206899 L 1.3005655,8.4078026 1.5638428,8.0949153 3.970057,8.0981495 c 2.5223814,0.00339 2.6042945,0.017002 2.8472302,0.473131 0.086263,0.1619649 0.118306,1.9200105 0.118306,6.4908735 V 21.3309 l -0.297262,0.297261 -0.2972621,0.297263 H 3.9864407 1.6318123 Z M 5.0033898,15.010169 V 9.9254237 H 3.9864407 2.9694915 v 5.0847453 5.084746 h 1.0169492 1.0169491 z"
     id="path3775"
     inkscape:connector-curvature="0" />
  <path
     style="fill:#ffffff;stroke-width:0.20338982"
     d="M 3.0920296,6.7898223 C 1.3491786,6.1678156 0.56141113,4.2119315 1.4003308,2.5896398 1.8557491,1.7089579 2.935362,1.0805312 3.9956215,1.0789595 5.5465516,1.0766606 6.7861879,2.2257182 6.9110607,3.7813714 7.0761896,5.8385285 5.0028773,7.4717853 3.0920296,6.7898223 Z M 4.7744173,4.6887529 C 5.1093828,4.2993324 5.0909213,3.6339105 4.735285,3.2782743 3.892818,2.4358072 2.5324057,3.4797555 3.1114075,4.5243996 3.4322969,5.1033534 4.3405807,5.1931181 4.7744173,4.6887529 Z"
     id="path3777"
     inkscape:connector-curvature="0" />
  <path
     style="fill:#ffffff;stroke-width:0.20338982"
     d="M 9.3684485,21.628161 9.0711864,21.3309 v -4.110199 c 0,-3.728995 0.018221,-4.181443 0.1964601,-4.878352 0.516185,-2.018263 1.7611765,-3.5801907 3.5853405,-4.4980569 1.187909,-0.5977206 2.142717,-0.8020316 3.469072,-0.7423161 2.52856,0.1138417 4.761713,1.5515585 5.856875,3.770691 0.704348,1.427222 0.739835,1.6899 0.796374,5.894686 0.02766,2.057129 0.01875,3.950587 -0.01981,4.207684 -0.04292,0.2862 -0.163726,0.561076 -0.311568,0.708918 -0.240231,0.240231 -0.253516,0.241469 -2.59176,0.241469 -1.489108,0 -2.425521,-0.04026 -2.555605,-0.109881 -0.45848,-0.245371 -0.493179,-0.563518 -0.493179,-4.521794 v -3.722954 l -0.297262,-0.297262 c -0.390032,-0.390032 -0.981681,-0.411984 -1.400457,-0.05196 l -0.285332,0.2453 -0.05085,3.983966 -0.05085,3.983966 -0.285332,0.245309 c -0.283711,0.243918 -0.29863,0.245311 -2.626467,0.245311 H 9.6657106 Z m 3.6688395,-4.775805 c 0,-3.873204 0.0256,-4.0108 0.911223,-4.898182 0.436451,-0.437315 0.697643,-0.606339 1.159499,-0.750339 1.406302,-0.438463 2.934836,0.234905 3.56171,1.569046 0.20181,0.429501 0.218151,0.667016 0.265873,3.864407 l 0.05085,3.40678 h 1.016949 1.016949 l 0.02861,-3.101695 c 0.01779,-1.928738 -0.01389,-3.357538 -0.08379,-3.778231 -0.488725,-2.94155 -3.487118,-4.81945 -6.385807,-3.9994451 -1.532057,0.4334011 -2.902973,1.7690881 -3.375118,3.2883881 -0.183582,0.590742 -0.200849,0.947011 -0.200849,4.144068 v 3.497762 h 1.016949 1.016949 z"
     id="path3779"
     inkscape:connector-curvature="0" />
</svg>
