<?xml version="1.0" encoding="UTF-8" standalone="no"?>
<svg
   xmlns:dc="http://purl.org/dc/elements/1.1/"
   xmlns:cc="http://creativecommons.org/ns#"
   xmlns:rdf="http://www.w3.org/1999/02/22-rdf-syntax-ns#"
   xmlns:svg="http://www.w3.org/2000/svg"
   xmlns="http://www.w3.org/2000/svg"
   xmlns:sodipodi="http://sodipodi.sourceforge.net/DTD/sodipodi-0.dtd"
   xmlns:inkscape="http://www.inkscape.org/namespaces/inkscape"
   width="24"
   height="24"
   viewBox="0 0 24 24"
   fill="none"
   stroke="currentColor"
   stroke-width="2"
   stroke-linecap="round"
   stroke-linejoin="round"
   class="feather feather-paperclip"
   version="1.1"
   id="svg3819"
   sodipodi:docname="paperclip.svg"
   inkscape:version="0.92.3 (2405546, 2018-03-11)">
  <metadata
     id="metadata3825">
    <rdf:RDF>
      <cc:Work
         rdf:about="">
        <dc:format>image/svg+xml</dc:format>
        <dc:type
           rdf:resource="http://purl.org/dc/dcmitype/StillImage" />
      </cc:Work>
    </rdf:RDF>
  </metadata>
  <defs
     id="defs3823" />
  <sodipodi:namedview
     pagecolor="#ffffff"
     bordercolor="#666666"
     borderopacity="1"
     objecttolerance="10"
     gridtolerance="10"
     guidetolerance="10"
     inkscape:pageopacity="0"
     inkscape:pageshadow="2"
     inkscape:window-width="1920"
     inkscape:window-height="986"
     id="namedview3821"
     showgrid="false"
     inkscape:zoom="9.8333333"
     inkscape:cx="12"
     inkscape:cy="12"
     inkscape:window-x="-11"
     inkscape:window-y="-11"
     inkscape:window-maximized="1"
     inkscape:current-layer="svg3819" />
  <path
     d="M21.44 11.05l-9.19 9.19a6 6 0 0 1-8.49-8.49l9.19-9.19a4 4 0 0 1 5.66 5.66l-9.2 9.19a2 2 0 0 1-2.83-2.83l8.49-8.48"
     id="path3817" />
  <path
     style="fill:#ffffff;stroke-width:0.20338982"
     d=""
     id="path3827"
     inkscape:connector-curvature="0" />
  <path
     style="fill:#ffffff;stroke-width:0.20338982"
     d="M 6.579661,22.798596 C 4.4518391,22.306752 2.7375261,20.957695 1.7985451,19.036158 0.97371178,17.348214 0.83920977,15.660735 1.390869,13.921404 1.8916792,12.342397 1.9973386,12.216903 7.4413015,6.7351782 10.58827,3.5663803 12.704143,1.5150019 13.0808,1.2675757 c 1.645222,-1.08074419 3.797814,-1.07202789 5.436152,0.022012 0.787687,0.5259976 1.270836,1.0836423 1.693498,1.954614 0.689889,1.421643 0.683771,2.8862053 -0.01814,4.3422389 -0.349983,0.725998 -0.610585,1.0055132 -5.413894,5.8067934 -5.6104764,5.608105 -5.4976342,5.516184 -6.7750272,5.518977 -1.6516064,0.0036 -2.9237517,-1.242795 -2.9307309,-2.871434 -0.00542,-1.264976 -0.063953,-1.191933 5.0474251,-6.2987444 4.207148,-4.2033889 4.629078,-4.59627 4.936107,-4.59627 0.486819,0 0.93025,0.4676408 0.93025,0.9810401 0,0.3738515 -0.146858,0.5335107 -4.482051,4.8727553 -4.2165386,4.22048 -4.4853902,4.511142 -4.5384326,4.906603 -0.051006,0.380281 -0.022173,0.454573 0.3023893,0.779135 0.2855346,0.285534 0.4381959,0.358772 0.7478506,0.358772 0.3776662,0 0.5332925,-0.143925 5.3057137,-4.90678 3.589574,-3.5823787 4.988632,-5.0440232 5.183376,-5.4152542 0.367845,-0.701201 0.389762,-1.9082955 0.04727,-2.6033752 C 17.801288,2.5939753 16.027156,1.9482752 14.502824,2.6447467 13.974611,2.8860881 13.318115,3.5015931 9.0906058,7.7190239 6.3935502,10.40965 4.1063815,12.776232 3.8854979,13.10486 2.829242,14.676345 2.6885717,16.546434 3.4982847,18.252523 c 0.3647285,0.768494 1.3142373,1.762043 2.0733852,2.169554 1.451716,0.779282 3.3875643,0.781328 4.8647851,0.0051 0.377575,-0.198392 1.868284,-1.616768 5.554291,-5.284789 4.870131,-4.846367 5.051045,-5.01362 5.423078,-5.01362 0.513008,0 0.979396,0.444135 0.979396,0.932666 0,0.311008 -0.414139,0.751139 -5.161017,5.484911 -5.515441,5.500212 -5.541117,5.522094 -7.09322,6.044872 -0.9978592,0.336098 -2.5988102,0.429354 -3.559322,0.207333 z"
     id="path3829"
     inkscape:connector-curvature="0" />
</svg>
